<svg width="768" height="74" fill="none" xmlns="http://www.w3.org/2000/svg"><path fill="#202020" d="M0 0h768v74H0z"/><path fill-rule="evenodd" clip-rule="evenodd" d="M730 29h-28v-3h28v3zM730 39h-28v-3h28v3zM730 49h-28v-3h28v3z" fill="#fff"/><path d="M30 30.667c0-4.434 0-6.651.863-8.344a7.917 7.917 0 013.46-3.46C36.016 18 38.233 18 42.667 18h12.666c4.434 0 6.651 0 8.344.863 1.49.759 2.701 1.97 3.46 3.46.863 1.693.863 3.91.863 8.344v12.666c0 4.434 0 6.651-.863 8.344a7.917 7.917 0 01-3.46 3.46c-1.693.863-3.91.863-8.344.863H42.667c-4.434 0-6.651 0-8.344-.863a7.917 7.917 0 01-3.46-3.46C30 49.984 30 47.767 30 43.333V30.667z" fill="#3DDC84"/><circle cx="49" cy="37" r="11" fill="#fff"/><path fill-rule="evenodd" clip-rule="evenodd" d="M45.154 37a3.846 3.846 0 107.692 0H55a6 6 0 01-12 0h2.154z" fill="#3DDC84"/></svg>